<!--?xml version="1.0" encoding="utf-8"?-->
<!-- Generator: Adobe Illustrator 18.1.1, SVG Export Plug-In . SVG Version: 6.00 Build 0)  -->

<svg version="1.1" id="_x32_" xmlns="http://www.w3.org/2000/svg" xmlns:xlink="http://www.w3.org/1999/xlink" x="0px" y="0px" viewBox="0 0 512 512" style="width: 256px; height: 256px; opacity: 1;" xml:space="preserve">
<style type="text/css">
	.st0{fill:#4B4B4B;}
</style>
<g>
	<path class="st0" d="M494.022,347.362c-6.63-6.637-14.785-11.772-23.93-14.793v-0.03c0,0-0.008,0-0.015,0
		c-5.618-14.986-15.06-37.741-27.16-63.941c-19.586-42.303-46.083-93.43-74.805-134.483c-14.421-20.553-29.348-38.604-44.669-51.924
		c-7.679-6.66-15.462-12.137-23.506-16.058c-8.044-3.892-16.423-6.266-24.972-6.266h-78.846c-7.954,0-15.544,1.324-22.598,3.75
		c-12.419,4.264-23.112,11.854-32.48,21.222c-14.056,14.108-25.396,32.368-35.613,51.671
		c-10.217,19.332-19.302,39.788-28.247,58.294c-10.216,21.11-15.775,36.915-18.788,49.439c-1.109,4.576-1.838,8.721-2.374,12.501
		c-0.737,0.685-1.444,1.384-2.12,2.12c-4.145-1.614-8.52-2.374-12.836-2.374c-5.7,0-11.34,1.324-16.504,3.922
		c-5.142,2.567-9.77,6.407-13.35,11.377c-4.628,6.459-6.92,13.997-6.92,21.416c0,6.295,1.638,12.531,4.778,18.089
		c-1.667,1.86-3.103,3.862-4.323,6.005C1.727,322.635,0,328.819,0,335.337c0,10.127,4.153,19.354,10.783,25.984
		c4.992,5.03,11.511,8.609,18.788,10.046c1.897,6.102,5.365,11.489,9.882,15.745c6.518,6.154,15.433,9.934,25.114,9.934
		c6.012,0,11.734-1.436,16.728-4.033c1.674-0.841,3.274-1.838,4.777-2.962c1.496,1.124,3.104,2.12,4.77,2.962
		c5.015,2.597,10.722,4.033,16.727,4.033c5.983,0,11.712-1.436,16.735-4.033c1.667-0.841,3.274-1.838,4.77-2.962
		c1.496,1.124,3.103,2.12,4.77,2.962c4.992,2.597,10.722,4.033,16.704,4.033c6.005,0,11.735-1.436,16.735-4.033
		c1.66-0.841,3.274-1.838,4.762-2.962c1.496,1.124,3.11,2.12,4.77,2.962c5.03,2.597,10.722,4.033,16.735,4.033
		c5.983,0,11.712-1.436,16.735-4.033c1.666-0.841,3.274-1.838,4.77-2.962c1.496,1.124,3.103,2.12,4.769,2.962
		c4.993,2.597,10.723,4.033,16.735,4.033c5.983,0,11.705-1.436,16.705-4.033c1.689-0.871,3.296-1.86,4.792-2.962
		c1.496,1.124,3.081,2.12,4.74,2.962c5.023,2.597,10.752,4.033,16.735,4.033c6.012,0,11.712-1.436,16.735-4.033
		c1.666-0.841,3.274-1.838,4.769-2.962c1.496,1.124,3.104,2.12,4.77,2.962c4.993,2.597,10.722,4.033,16.728,4.033
		c5.983,0,11.712-1.436,16.705-4.033c1.697-0.871,3.304-1.86,4.8-2.962c1.496,1.124,3.073,2.12,4.74,2.962
		c5.022,2.597,10.752,4.033,16.735,4.033c9.055,0,17.441-3.296,23.788-8.773c-0.03,0.819-0.059,1.667-0.059,2.485
		c0,16.929,6.89,32.339,17.978,43.396c11.088,11.088,26.498,18.008,43.404,17.978c16.929,0.03,32.331-6.89,43.396-17.978
		c11.088-11.058,18-26.468,17.978-43.396C512.022,373.853,505.11,358.449,494.022,347.362z M382.302,362.706
		c-0.558,4.122-2.62,7.76-5.61,10.387c-3.021,2.649-6.861,4.204-11.176,4.204c-2.791,0-5.388-0.648-7.702-1.838
		c-2.284-1.183-4.324-2.902-5.871-4.993c-1.868-2.478-4.829-3.951-7.902-3.951c-3.103,0-6.064,1.473-7.924,3.951
		c-1.555,2.091-3.586,3.81-5.902,4.993c-2.284,1.19-4.881,1.838-7.679,1.838c-2.82,0-5.387-0.648-7.701-1.838
		c-2.314-1.183-4.346-2.902-5.901-4.993c-1.861-2.478-4.792-3.951-7.896-3.951c-3.103,0-6.042,1.473-7.902,3.951
		c-1.577,2.091-3.586,3.81-5.9,4.993c-2.314,1.19-4.881,1.838-7.702,1.838c-2.79,0-5.388-0.648-7.702-1.838
		c-2.314-1.183-4.316-2.902-5.871-4.993c-1.86-2.478-4.822-3.951-7.924-3.951c-3.11,0-6.042,1.473-7.91,3.951
		c-1.548,2.091-3.579,3.81-5.893,4.993c-2.314,1.19-4.882,1.838-7.672,1.838c-2.828,0-5.395-0.648-7.709-1.838
		c-2.314-1.183-4.346-2.902-5.893-4.993c-1.868-2.478-4.8-3.951-7.902-3.951c-3.104,0-6.042,1.473-7.902,3.951
		c-1.586,2.091-3.586,3.81-5.894,4.993c-2.322,1.19-4.911,1.838-7.709,1.838c-2.82,0-5.387-0.648-7.701-1.838
		c-2.315-1.183-4.316-2.902-5.902-4.993c-1.86-2.478-4.792-3.951-7.902-3.951c-3.103,0-6.035,1.473-7.895,3.951
		c-1.555,2.091-3.586,3.81-5.901,4.993c-2.314,1.19-4.881,1.838-7.702,1.838c-2.797,0-5.365-0.648-7.679-1.838
		c-2.314-1.183-4.346-2.902-5.893-4.993c-1.868-2.478-4.8-3.951-7.902-3.951c-3.103,0-6.064,1.473-7.902,3.951
		c-1.578,2.091-3.609,3.81-5.901,4.993c-2.307,1.19-4.904,1.838-7.702,1.838c-2.82,0-5.387-0.648-7.701-1.838
		c-2.314-1.183-4.345-2.902-5.9-4.993c-1.861-2.478-4.792-3.951-7.896-3.951c-3.103,0-6.042,1.473-7.902,3.951
		c-1.555,2.091-3.586,3.81-5.901,4.993c-2.314,1.19-4.881,1.838-7.701,1.838c-4.517,0-8.52-1.719-11.601-4.576
		c-3.043-2.872-5.023-6.794-5.306-11.228c-0.364-5.306-4.881-9.368-10.187-9.197c-0.305,0-0.558,0.03-0.7,0.03h-0.201
		c-4.658-0.06-8.78-1.95-11.823-4.964c-3.103-3.11-4.993-7.285-4.993-12.024c0-3.051,0.788-5.841,2.173-8.297
		c1.406-2.456,3.407-4.576,5.812-6.064c2.537-1.637,4.233-4.346,4.546-7.367c0.306-3.021-0.818-6.042-2.991-8.126
		c-3.416-3.274-5.254-7.732-5.254-12.278c0.03-3.386,0.99-6.742,3.081-9.733l0.142-0.141c1.659-2.344,3.78-4.063,6.146-5.276
		c2.374-1.191,5-1.808,7.65-1.808c3.385,0.03,6.742,0.99,9.71,3.073l0.112,0.089l0.082,0.052c2.284,1.748,5.224,2.433,8.074,1.808
		c1.912-0.394,3.638-1.354,4.993-2.738c0.677-0.707,1.265-1.525,1.748-2.456c1.384-2.768,3.557-5.104,6.154-6.741
		c0.93-0.596,1.912-1.102,2.931-1.466c1.89-0.737,3.892-1.132,6.065-1.132c2.798,0,5.394,0.677,7.709,1.861
		c2.284,1.182,4.316,2.909,5.872,4.962c1.86,2.486,4.822,3.982,7.924,3.982s6.042-1.496,7.902-3.982
		c1.555-2.053,3.586-3.78,5.901-4.962c2.284-1.184,4.874-1.861,7.672-1.861c2.82,0,5.387,0.677,7.701,1.861
		c2.314,1.182,4.346,2.909,5.901,4.962c1.86,2.486,4.792,3.982,7.902,3.982c3.103,0,6.064-1.496,7.925-3.982
		c1.555-2.053,3.557-3.78,5.871-4.962c2.314-1.184,4.881-1.861,7.701-1.861c2.798,0,5.387,0.677,7.709,1.861
		c2.314,1.182,4.316,2.909,5.894,4.962c1.86,2.486,4.799,3.982,7.902,3.982c3.103,0,6.042-1.496,7.902-3.982
		c1.548-2.053,3.579-3.78,5.893-4.962c2.314-1.184,4.881-1.861,7.679-1.861c2.82,0,5.388,0.677,7.702,1.861
		c2.314,1.182,4.346,2.909,5.901,4.962c1.86,2.486,4.8,3.982,7.902,3.982c3.103,0,6.064-1.496,7.895-3.982
		c1.585-2.053,3.586-3.78,5.901-4.962c2.315-1.184,4.912-1.861,7.702-1.861c2.82,0,5.394,0.677,7.701,1.861
		c2.314,1.182,4.323,2.909,5.9,4.962c1.831,2.486,4.8,3.982,7.903,3.982c3.103,0,6.034-1.496,7.902-3.982
		c1.548-2.053,3.579-3.78,5.893-4.962c2.314-1.184,4.881-1.861,7.709-1.861c2.79,0,5.357,0.677,7.672,1.861
		c2.314,1.182,4.346,2.909,5.901,4.962c1.86,2.486,4.822,3.982,7.924,3.982c0.312,0,0.625-0.022,0.93-0.052l69.842,77.566
		C385.122,356.359,382.815,359.208,382.302,362.706z M480.055,420.188c-7.568,7.56-17.896,12.188-29.43,12.188
		c-11.518,0-21.869-4.628-29.437-12.188c-7.538-7.56-12.158-17.888-12.188-29.43c0.03-8.356,2.456-16.117,6.712-22.636
		c1.556-2.456,3.416-4.74,5.477-6.801c1.719-1.719,3.609-3.267,5.618-4.68c6.742-4.711,14.927-7.479,23.819-7.508
		c11.534,0.03,21.862,4.658,29.43,12.188c7.56,7.568,12.188,17.918,12.188,29.437C492.244,402.3,487.616,412.628,480.055,420.188z" style="fill: rgb(75, 75, 75);"></path>
</g>
</svg>
